
<svg xmlns="http://www.w3.org/2000/svg" xmlns:xlink="http://www.w3.org/1999/xlink" viewBox="0 0 42 42" width="42" height="42" fill="none">
  <g opacity="100%">
    <rect filter="url(#filter_dshadow_0_0_0_00000014)" x="0" y="0" width="42" height="42" fill="#fff" rx="12"></rect>
    <svg xmlns="http://www.w3.org/2000/svg" viewBox="0 0 512 512" width="14" height="14" fill="#000" x="14" y="14">
      <path d="M256 288c79.53 0 144-64.47 144-144s-64.47-144-144-144c-79.52 0-144 64.47-144 144S176.5 288 256 288zM351.1 320H160c-88.36 0-160 71.63-160 160c0 17.67 14.33 32 31.1 32H480c17.67 0 31.1-14.33 31.1-32C512 391.6 440.4 320 351.1 320z"></path>
    </svg>
  </g>
  <defs>
    <filter id="filter_dshadow_0_0_0_00000014" color-interpolation-filters="sRGB" filterUnits="userSpaceOnUse">
      <feFlood flood-opacity="0" result="bg-fix"></feFlood>
      <feColorMatrix in="SourceAlpha" type="matrix" values="0 0 0 0 0 0 0 0 0 0 0 0 0 0 0 0 0 0 127 0" result="alpha"></feColorMatrix>
      <feOffset dx="0" dy="0"></feOffset>
      <feGaussianBlur stdDeviation="0"></feGaussianBlur>
      <feComposite in2="alpha" operator="out"></feComposite>
      <feColorMatrix type="matrix" values="0 0 0 0 0 0 0 0 0 0 0 0 0 0 0 0 0 0 0.08 0"></feColorMatrix>
      <feBlend mode="normal" in2="bg-fix" result="bg-fix-filter_dshadow_0_0_0_00000014"></feBlend>
      <feBlend in="SourceGraphic" in2="bg-fix-filter_dshadow_0_0_0_00000014" result="shape"></feBlend>
    </filter>
  </defs>
</svg>